<svg class="main-svg" xmlns="http://www.w3.org/2000/svg" xmlns:xlink="http://www.w3.org/1999/xlink" width="1125" height="1500" style="" viewBox="0 0 1125 1500"><rect x="0" y="0" width="1125" height="1500" style="fill: rgb(255, 255, 255); fill-opacity: 1;"/><defs id="defs-ac090b"><g class="clips"><clipPath id="clipac090bxyplot" class="plotclip"><rect width="1125" height="1500"/></clipPath><clipPath class="axesclip" id="clipac090bx"><rect x="0" y="0" width="1125" height="1500"/></clipPath><clipPath class="axesclip" id="clipac090by"><rect x="0" y="0" width="1125" height="1500"/></clipPath><clipPath class="axesclip" id="clipac090bxy"><rect x="0" y="0" width="1125" height="1500"/></clipPath></g><g class="gradients"/><g class="patterns"/></defs><g class="bglayer"/><g class="layer-below"><g class="imagelayer"/><g class="shapelayer"/></g><g class="cartesianlayer"><g class="subplot xy"><g class="layer-subplot"><g class="shapelayer"/><g class="imagelayer"/></g><g class="minor-gridlayer"><g class="x"/><g class="y"/></g><g class="gridlayer"><g class="x"/><g class="y"/></g><g class="zerolinelayer"/><path class="xlines-below"/><path class="ylines-below"/><g class="overlines-below"/><g class="xaxislayer-below"/><g class="yaxislayer-below"/><g class="overaxes-below"/><g class="plot" transform="" clip-path="url(#clipac090bxyplot)"><g class="scatterlayer mlayer"><g class="trace scatter trace5ce708" style="stroke-miterlimit: 2; opacity: 1;"><g class="fills"><g><path class="js-fill" d="M891.33,475.73L1005.49,419.15L901.7,380.19L891.33,475.73ZM753.66,1104.32L644.59,1033.5L643.24,1138.09L753.66,1104.32ZM793.98,713.82L887.77,779.48L893.02,661.88L793.98,713.82ZM1000,75L937.5,172.43L1036.84,163.05L1000,75ZM140.62,1425L215.2,1329.97L100.11,1334.61L140.62,1425ZM215.2,1329.97L351.09,1322.81L281.54,1241.15L215.2,1329.97ZM215.2,1329.97L139.06,1227.54L100.11,1334.61L215.2,1329.97ZM937.5,172.43L875,75L827.32,162.46L937.5,172.43ZM253.03,1051.04L236.54,1150.92L354.6,1126.9L253.03,1051.04ZM507.99,1100.34L573.47,1221.14L643.24,1138.09L507.99,1100.34ZM664.34,776.22L793.98,713.82L702.68,662.64L664.34,776.22ZM793.98,713.82L782.8,845.69L887.77,779.48L793.98,713.82ZM782.8,845.69L882.47,911.87L887.77,779.48L782.8,845.69ZM1125,1290L999.41,1216.77L1016.02,1324.88L1125,1290ZM139.06,1227.54L0,1290L100.11,1334.61L139.06,1227.54ZM644.59,1033.5L507.99,1100.34L643.24,1138.09L644.59,1033.5ZM887.42,1299.61L733.49,1223.29L760.82,1338.86L887.42,1299.61ZM1125,885L1125,750L1002.66,830.99L1125,885ZM1125,345L1125,210L996.69,282.8L1125,345ZM531.27,968.37L390.11,1017.99L507.99,1100.34L531.27,968.37ZM692.91,333.31L776.46,440.09L838.53,283.19L692.91,333.31ZM1125,1155L1125,1020L995.72,1088.47L1125,1155ZM416.68,636.24L287.01,698.62L413.77,764.48L416.68,636.24ZM425.59,1221.04L492.69,1318.77L573.47,1221.14L425.59,1221.04ZM0,1425L140.62,1425L100.11,1334.61L0,1425ZM425.59,1221.04L354.6,1126.9L281.54,1241.15L425.59,1221.04ZM1125,750L1001.86,695.28L1002.66,830.99L1125,750ZM1002.66,830.99L1001.86,695.28L887.77,779.48L1002.66,830.99ZM0,1155L0,1290L139.06,1227.54L0,1155ZM655.51,906.46L644.59,1033.5L760.87,974.28L655.51,906.46ZM843.75,1425L887.42,1299.61L760.82,1338.86L843.75,1425ZM776.46,440.09L666.04,563.41L829.41,573.77L776.46,440.09ZM0,1020L0,1155L125.59,1093.35L0,1020ZM733.49,1223.29L753.66,1104.32L643.24,1138.09L733.49,1223.29ZM999.41,1216.77L995.72,1088.47L870.92,1157.27L999.41,1216.77ZM838.53,283.19L776.46,440.09L901.7,380.19L838.53,283.19ZM390.11,1017.99L253.03,1051.04L354.6,1126.9L390.11,1017.99ZM1125,1290L1125,1155L999.41,1216.77L1125,1290ZM1125,210L1125,75L1036.84,163.05L1125,210ZM870.92,1157.27L995.72,1088.47L873.84,1030.56L870.92,1157.27ZM999.41,1216.77L1125,1155L995.72,1088.47L999.41,1216.77ZM538.23,833.36L655.51,906.46L664.34,776.22L538.23,833.36ZM664.34,776.22L782.8,845.69L793.98,713.82L664.34,776.22ZM421.87,1425L562.5,1425L492.69,1318.77L421.87,1425ZM733.49,1223.29L870.92,1157.27L753.66,1104.32L733.49,1223.29ZM873.84,1030.56L998.51,958L882.47,911.87L873.84,1030.56ZM998.51,958L1125,885L1002.66,830.99L998.51,958ZM390.11,1017.99L271.41,944.8L253.03,1051.04L390.11,1017.99ZM573.47,1221.14L733.49,1223.29L643.24,1138.09L573.47,1221.14ZM125.59,1093.35L139.06,1227.54L236.54,1150.92L125.59,1093.35ZM666.04,563.41L559.63,685.98L702.68,662.64L666.04,563.41ZM282.41,830.57L146.32,737.03L138.97,854.08L282.41,830.57ZM999.41,1216.77L887.42,1299.61L1016.02,1324.88L999.41,1216.77ZM733.49,1223.29L636.3,1321.39L760.82,1338.86L733.49,1223.29ZM133.67,977.09L271.41,944.8L138.97,854.08L133.67,977.09ZM636.3,1321.39L703.12,1425L760.82,1338.86L636.3,1321.39ZM793.98,713.82L829.41,573.77L702.68,662.64L793.98,713.82ZM980.73,559.74L829.41,573.77L893.02,661.88L980.73,559.74ZM271.41,944.8L282.41,830.57L138.97,854.08L271.41,944.8ZM1125,1020L1125,885L998.51,958L1125,1020ZM413.77,764.48L282.41,830.57L407.21,899.36L413.77,764.48ZM838.53,283.19L937.5,172.43L827.32,162.46L838.53,283.19ZM351.09,1322.81L425.59,1221.04L281.54,1241.15L351.09,1322.81ZM287.01,698.62L146.32,737.03L282.41,830.57L287.01,698.62ZM1001.86,695.28L1125,615L980.73,559.74L1001.86,695.28ZM636.3,1321.39L733.49,1223.29L573.47,1221.14L636.3,1321.39ZM413.77,764.48L538.23,833.36L559.63,685.98L413.77,764.48ZM1125,1020L998.51,958L995.72,1088.47L1125,1020ZM996.69,282.8L838.53,283.19L901.7,380.19L996.69,282.8ZM0,750L0,885L138.97,854.08L0,750ZM146.32,737.03L0,750L138.97,854.08L146.32,737.03ZM538.23,833.36L531.27,968.37L655.51,906.46L538.23,833.36ZM829.41,573.77L793.98,713.82L893.02,661.88L829.41,573.77ZM887.42,1299.61L984.37,1425L1016.02,1324.88L887.42,1299.61ZM843.75,1425L984.37,1425L887.42,1299.61L843.75,1425ZM623.6,450.01L530.33,552.3L666.04,563.41L623.6,450.01ZM829.41,573.77L666.04,563.41L702.68,662.64L829.41,573.77ZM995.72,1088.47L998.51,958L873.84,1030.56L995.72,1088.47ZM0,1020L125.59,1093.35L133.67,977.09L0,1020ZM507.99,1100.34L390.11,1017.99L354.6,1126.9L507.99,1100.34ZM999.41,1216.77L870.92,1157.27L887.42,1299.61L999.41,1216.77ZM354.6,1126.9L236.54,1150.92L281.54,1241.15L354.6,1126.9ZM559.63,685.98L664.34,776.22L702.68,662.64L559.63,685.98ZM0,885L133.67,977.09L138.97,854.08L0,885ZM425.59,1221.04L507.99,1100.34L354.6,1126.9L425.59,1221.04ZM666.04,563.41L530.33,552.3L559.63,685.98L666.04,563.41ZM623.6,450.01L666.04,563.41L776.46,440.09L623.6,450.01ZM703.12,1425L843.75,1425L760.82,1338.86L703.12,1425ZM760.87,974.28L873.84,1030.56L882.47,911.87L760.87,974.28ZM937.5,172.43L838.53,283.19L996.69,282.8L937.5,172.43ZM125.59,1093.35L0,1155L139.06,1227.54L125.59,1093.35ZM870.92,1157.27L873.84,1030.56L753.66,1104.32L870.92,1157.27ZM735.59,206.69L692.91,333.31L838.53,283.19L735.59,206.69ZM0,885L0,1020L133.67,977.09L0,885ZM655.51,906.46L531.27,968.37L644.59,1033.5L655.51,906.46ZM236.54,1150.92L139.06,1227.54L281.54,1241.15L236.54,1150.92ZM1125,750L1125,615L1001.86,695.28L1125,750ZM507.99,1100.34L425.59,1221.04L573.47,1221.14L507.99,1100.34ZM538.23,833.36L664.34,776.22L559.63,685.98L538.23,833.36ZM984.37,1425L1125,1425L1016.02,1324.88L984.37,1425ZM413.77,764.48L407.21,899.36L538.23,833.36L413.77,764.48ZM644.59,1033.5L531.27,968.37L507.99,1100.34L644.59,1033.5ZM531.27,968.37L407.21,899.36L390.11,1017.99L531.27,968.37ZM413.77,764.48L287.01,698.62L282.41,830.57L413.77,764.48ZM1125,615L1125,480L980.73,559.74L1125,615ZM644.59,1033.5L753.66,1104.32L760.87,974.28L644.59,1033.5ZM530.33,552.3L416.68,636.24L559.63,685.98L530.33,552.3ZM776.46,440.09L891.33,475.73L901.7,380.19L776.46,440.09ZM407.21,899.36L282.41,830.57L271.41,944.8L407.21,899.36ZM887.42,1299.61L870.92,1157.27L733.49,1223.29L887.42,1299.61ZM351.09,1322.81L492.69,1318.77L425.59,1221.04L351.09,1322.81ZM692.91,333.31L623.6,450.01L776.46,440.09L692.91,333.31ZM937.5,172.43L996.69,282.8L1036.84,163.05L937.5,172.43ZM562.5,1425L703.12,1425L636.3,1321.39L562.5,1425ZM416.68,636.24L413.77,764.48L559.63,685.98L416.68,636.24ZM351.09,1322.81L421.87,1425L492.69,1318.77L351.09,1322.81ZM1125,480L1005.49,419.15L980.73,559.74L1125,480ZM664.34,776.22L655.51,906.46L782.8,845.69L664.34,776.22ZM390.11,1017.99L407.21,899.36L271.41,944.8L390.11,1017.99ZM562.5,1425L636.3,1321.39L492.69,1318.77L562.5,1425ZM492.69,1318.77L636.3,1321.39L573.47,1221.14L492.69,1318.77ZM753.66,1104.32L873.84,1030.56L760.87,974.28L753.66,1104.32ZM281.25,1425L421.87,1425L351.09,1322.81L281.25,1425ZM980.73,559.74L1005.49,419.15L891.33,475.73L980.73,559.74ZM829.41,573.77L980.73,559.74L891.33,475.73L829.41,573.77ZM125.59,1093.35L236.54,1150.92L253.03,1051.04L125.59,1093.35ZM1125,1425L1125,1290L1016.02,1324.88L1125,1425ZM882.47,911.87L1002.66,830.99L887.77,779.48L882.47,911.87ZM735.59,206.69L838.53,283.19L827.32,162.46L735.59,206.69ZM1001.86,695.28L980.73,559.74L893.02,661.88L1001.86,695.28ZM0,1290L0,1425L100.11,1334.61L0,1290ZM998.51,958L1002.66,830.99L882.47,911.87L998.51,958ZM133.67,977.09L125.59,1093.35L253.03,1051.04L133.67,977.09ZM281.25,1425L351.09,1322.81L215.2,1329.97L281.25,1425ZM139.06,1227.54L215.2,1329.97L281.54,1241.15L139.06,1227.54ZM1125,75L1000,75L1036.84,163.05L1125,75ZM140.62,1425L281.25,1425L215.2,1329.97L140.62,1425ZM1000,75L875,75L937.5,172.43L1000,75ZM271.41,944.8L133.67,977.09L253.03,1051.04L271.41,944.8ZM782.8,845.69L655.51,906.46L760.87,974.28L782.8,845.69ZM750,75L735.59,206.69L827.32,162.46L750,75ZM996.69,282.8L1125,210L1036.84,163.05L996.69,282.8ZM782.8,845.69L760.87,974.28L882.47,911.87L782.8,845.69ZM538.23,833.36L407.21,899.36L531.27,968.37L538.23,833.36ZM887.77,779.48L1001.86,695.28L893.02,661.88L887.77,779.48ZM1005.49,419.15L1125,345L996.69,282.8L1005.49,419.15ZM1005.49,419.15L996.69,282.8L901.7,380.19L1005.49,419.15ZM1125,480L1125,345L1005.49,419.15L1125,480ZM875,75L750,75L827.32,162.46L875,75ZM776.46,440.09L829.41,573.77L891.33,475.73L776.46,440.09Z" style="fill: rgb(0, 255, 255); fill-opacity: 1; stroke-width: 0;"/></g></g><g class="errorbars"/><g class="lines"><path class="js-line" d="M891.33,475.73L1005.49,419.15L901.7,380.19L891.33,475.73" style="vector-effect: none; fill: none; stroke: rgb(0, 0, 0); stroke-opacity: 1; stroke-width: 1.5px; opacity: 1;"/><path class="js-line" d="M753.66,1104.32L644.59,1033.5L643.24,1138.09L753.66,1104.32" style="vector-effect: none; fill: none; stroke: rgb(0, 0, 0); stroke-opacity: 1; stroke-width: 1.5px; opacity: 1;"/><path class="js-line" d="M793.98,713.82L887.77,779.48L893.02,661.88L793.98,713.82" style="vector-effect: none; fill: none; stroke: rgb(0, 0, 0); stroke-opacity: 1; stroke-width: 1.5px; opacity: 1;"/><path class="js-line" d="M1000,75L937.5,172.43L1036.84,163.05L1000,75" style="vector-effect: none; fill: none; stroke: rgb(0, 0, 0); stroke-opacity: 1; stroke-width: 1.5px; opacity: 1;"/><path class="js-line" d="M140.62,1425L215.2,1329.97L100.11,1334.61L140.62,1425" style="vector-effect: none; fill: none; stroke: rgb(0, 0, 0); stroke-opacity: 1; stroke-width: 1.5px; opacity: 1;"/><path class="js-line" d="M215.2,1329.97L351.09,1322.81L281.54,1241.15L215.2,1329.97" style="vector-effect: none; fill: none; stroke: rgb(0, 0, 0); stroke-opacity: 1; stroke-width: 1.5px; opacity: 1;"/><path class="js-line" d="M215.2,1329.97L139.06,1227.54L100.11,1334.61L215.2,1329.97" style="vector-effect: none; fill: none; stroke: rgb(0, 0, 0); stroke-opacity: 1; stroke-width: 1.5px; opacity: 1;"/><path class="js-line" d="M937.5,172.43L875,75L827.32,162.46L937.5,172.43" style="vector-effect: none; fill: none; stroke: rgb(0, 0, 0); stroke-opacity: 1; stroke-width: 1.5px; opacity: 1;"/><path class="js-line" d="M253.03,1051.04L236.54,1150.92L354.6,1126.9L253.03,1051.04" style="vector-effect: none; fill: none; stroke: rgb(0, 0, 0); stroke-opacity: 1; stroke-width: 1.5px; opacity: 1;"/><path class="js-line" d="M507.99,1100.34L573.47,1221.14L643.24,1138.09L507.99,1100.34" style="vector-effect: none; fill: none; stroke: rgb(0, 0, 0); stroke-opacity: 1; stroke-width: 1.5px; opacity: 1;"/><path class="js-line" d="M664.34,776.22L793.98,713.82L702.68,662.64L664.34,776.22" style="vector-effect: none; fill: none; stroke: rgb(0, 0, 0); stroke-opacity: 1; stroke-width: 1.5px; opacity: 1;"/><path class="js-line" d="M793.98,713.82L782.8,845.69L887.77,779.48L793.98,713.82" style="vector-effect: none; fill: none; stroke: rgb(0, 0, 0); stroke-opacity: 1; stroke-width: 1.5px; opacity: 1;"/><path class="js-line" d="M782.8,845.69L882.47,911.87L887.77,779.48L782.8,845.69" style="vector-effect: none; fill: none; stroke: rgb(0, 0, 0); stroke-opacity: 1; stroke-width: 1.5px; opacity: 1;"/><path class="js-line" d="M1125,1290L999.41,1216.77L1016.02,1324.88L1125,1290" style="vector-effect: none; fill: none; stroke: rgb(0, 0, 0); stroke-opacity: 1; stroke-width: 1.5px; opacity: 1;"/><path class="js-line" d="M139.06,1227.54L0,1290L100.11,1334.61L139.06,1227.54" style="vector-effect: none; fill: none; stroke: rgb(0, 0, 0); stroke-opacity: 1; stroke-width: 1.5px; opacity: 1;"/><path class="js-line" d="M644.59,1033.5L507.99,1100.34L643.24,1138.09L644.59,1033.5" style="vector-effect: none; fill: none; stroke: rgb(0, 0, 0); stroke-opacity: 1; stroke-width: 1.5px; opacity: 1;"/><path class="js-line" d="M887.42,1299.61L733.49,1223.29L760.82,1338.86L887.42,1299.61" style="vector-effect: none; fill: none; stroke: rgb(0, 0, 0); stroke-opacity: 1; stroke-width: 1.5px; opacity: 1;"/><path class="js-line" d="M1125,885L1125,750L1002.66,830.99L1125,885" style="vector-effect: none; fill: none; stroke: rgb(0, 0, 0); stroke-opacity: 1; stroke-width: 1.5px; opacity: 1;"/><path class="js-line" d="M1125,345L1125,210L996.69,282.8L1125,345" style="vector-effect: none; fill: none; stroke: rgb(0, 0, 0); stroke-opacity: 1; stroke-width: 1.5px; opacity: 1;"/><path class="js-line" d="M531.27,968.37L390.11,1017.99L507.99,1100.34L531.27,968.37" style="vector-effect: none; fill: none; stroke: rgb(0, 0, 0); stroke-opacity: 1; stroke-width: 1.5px; opacity: 1;"/><path class="js-line" d="M692.91,333.31L776.46,440.09L838.53,283.19L692.91,333.31" style="vector-effect: none; fill: none; stroke: rgb(0, 0, 0); stroke-opacity: 1; stroke-width: 1.5px; opacity: 1;"/><path class="js-line" d="M1125,1155L1125,1020L995.72,1088.47L1125,1155" style="vector-effect: none; fill: none; stroke: rgb(0, 0, 0); stroke-opacity: 1; stroke-width: 1.5px; opacity: 1;"/><path class="js-line" d="M416.68,636.24L287.01,698.62L413.77,764.48L416.68,636.24" style="vector-effect: none; fill: none; stroke: rgb(0, 0, 0); stroke-opacity: 1; stroke-width: 1.5px; opacity: 1;"/><path class="js-line" d="M425.59,1221.04L492.69,1318.77L573.47,1221.14L425.59,1221.04" style="vector-effect: none; fill: none; stroke: rgb(0, 0, 0); stroke-opacity: 1; stroke-width: 1.5px; opacity: 1;"/><path class="js-line" d="M0,1425L140.62,1425L100.11,1334.61L0,1425" style="vector-effect: none; fill: none; stroke: rgb(0, 0, 0); stroke-opacity: 1; stroke-width: 1.5px; opacity: 1;"/><path class="js-line" d="M425.59,1221.04L354.6,1126.9L281.54,1241.15L425.59,1221.04" style="vector-effect: none; fill: none; stroke: rgb(0, 0, 0); stroke-opacity: 1; stroke-width: 1.5px; opacity: 1;"/><path class="js-line" d="M1125,750L1001.86,695.28L1002.66,830.99L1125,750" style="vector-effect: none; fill: none; stroke: rgb(0, 0, 0); stroke-opacity: 1; stroke-width: 1.5px; opacity: 1;"/><path class="js-line" d="M1002.66,830.99L1001.86,695.28L887.77,779.48L1002.66,830.99" style="vector-effect: none; fill: none; stroke: rgb(0, 0, 0); stroke-opacity: 1; stroke-width: 1.5px; opacity: 1;"/><path class="js-line" d="M0,1155L0,1290L139.06,1227.54L0,1155" style="vector-effect: none; fill: none; stroke: rgb(0, 0, 0); stroke-opacity: 1; stroke-width: 1.5px; opacity: 1;"/><path class="js-line" d="M655.51,906.46L644.59,1033.5L760.87,974.28L655.51,906.46" style="vector-effect: none; fill: none; stroke: rgb(0, 0, 0); stroke-opacity: 1; stroke-width: 1.5px; opacity: 1;"/><path class="js-line" d="M843.75,1425L887.42,1299.61L760.82,1338.86L843.75,1425" style="vector-effect: none; fill: none; stroke: rgb(0, 0, 0); stroke-opacity: 1; stroke-width: 1.5px; opacity: 1;"/><path class="js-line" d="M776.46,440.09L666.04,563.41L829.41,573.77L776.46,440.09" style="vector-effect: none; fill: none; stroke: rgb(0, 0, 0); stroke-opacity: 1; stroke-width: 1.5px; opacity: 1;"/><path class="js-line" d="M0,1020L0,1155L125.59,1093.35L0,1020" style="vector-effect: none; fill: none; stroke: rgb(0, 0, 0); stroke-opacity: 1; stroke-width: 1.5px; opacity: 1;"/><path class="js-line" d="M733.49,1223.29L753.66,1104.32L643.24,1138.09L733.49,1223.29" style="vector-effect: none; fill: none; stroke: rgb(0, 0, 0); stroke-opacity: 1; stroke-width: 1.5px; opacity: 1;"/><path class="js-line" d="M999.41,1216.77L995.72,1088.47L870.92,1157.27L999.41,1216.77" style="vector-effect: none; fill: none; stroke: rgb(0, 0, 0); stroke-opacity: 1; stroke-width: 1.5px; opacity: 1;"/><path class="js-line" d="M838.53,283.19L776.46,440.09L901.7,380.19L838.53,283.19" style="vector-effect: none; fill: none; stroke: rgb(0, 0, 0); stroke-opacity: 1; stroke-width: 1.5px; opacity: 1;"/><path class="js-line" d="M390.11,1017.99L253.03,1051.04L354.6,1126.9L390.11,1017.99" style="vector-effect: none; fill: none; stroke: rgb(0, 0, 0); stroke-opacity: 1; stroke-width: 1.5px; opacity: 1;"/><path class="js-line" d="M1125,1290L1125,1155L999.41,1216.77L1125,1290" style="vector-effect: none; fill: none; stroke: rgb(0, 0, 0); stroke-opacity: 1; stroke-width: 1.5px; opacity: 1;"/><path class="js-line" d="M1125,210L1125,75L1036.84,163.05L1125,210" style="vector-effect: none; fill: none; stroke: rgb(0, 0, 0); stroke-opacity: 1; stroke-width: 1.5px; opacity: 1;"/><path class="js-line" d="M870.92,1157.27L995.72,1088.47L873.84,1030.56L870.92,1157.27" style="vector-effect: none; fill: none; stroke: rgb(0, 0, 0); stroke-opacity: 1; stroke-width: 1.5px; opacity: 1;"/><path class="js-line" d="M999.41,1216.77L1125,1155L995.72,1088.47L999.41,1216.77" style="vector-effect: none; fill: none; stroke: rgb(0, 0, 0); stroke-opacity: 1; stroke-width: 1.5px; opacity: 1;"/><path class="js-line" d="M538.23,833.36L655.51,906.46L664.34,776.22L538.23,833.36" style="vector-effect: none; fill: none; stroke: rgb(0, 0, 0); stroke-opacity: 1; stroke-width: 1.5px; opacity: 1;"/><path class="js-line" d="M664.34,776.22L782.8,845.69L793.98,713.82L664.34,776.22" style="vector-effect: none; fill: none; stroke: rgb(0, 0, 0); stroke-opacity: 1; stroke-width: 1.5px; opacity: 1;"/><path class="js-line" d="M421.87,1425L562.5,1425L492.69,1318.77L421.87,1425" style="vector-effect: none; fill: none; stroke: rgb(0, 0, 0); stroke-opacity: 1; stroke-width: 1.5px; opacity: 1;"/><path class="js-line" d="M733.49,1223.29L870.92,1157.27L753.66,1104.32L733.49,1223.29" style="vector-effect: none; fill: none; stroke: rgb(0, 0, 0); stroke-opacity: 1; stroke-width: 1.5px; opacity: 1;"/><path class="js-line" d="M873.84,1030.56L998.51,958L882.47,911.87L873.84,1030.56" style="vector-effect: none; fill: none; stroke: rgb(0, 0, 0); stroke-opacity: 1; stroke-width: 1.5px; opacity: 1;"/><path class="js-line" d="M998.51,958L1125,885L1002.66,830.99L998.51,958" style="vector-effect: none; fill: none; stroke: rgb(0, 0, 0); stroke-opacity: 1; stroke-width: 1.5px; opacity: 1;"/><path class="js-line" d="M390.11,1017.99L271.41,944.8L253.03,1051.04L390.11,1017.99" style="vector-effect: none; fill: none; stroke: rgb(0, 0, 0); stroke-opacity: 1; stroke-width: 1.5px; opacity: 1;"/><path class="js-line" d="M573.47,1221.14L733.49,1223.29L643.24,1138.09L573.47,1221.14" style="vector-effect: none; fill: none; stroke: rgb(0, 0, 0); stroke-opacity: 1; stroke-width: 1.5px; opacity: 1;"/><path class="js-line" d="M125.59,1093.35L139.06,1227.54L236.54,1150.92L125.59,1093.35" style="vector-effect: none; fill: none; stroke: rgb(0, 0, 0); stroke-opacity: 1; stroke-width: 1.5px; opacity: 1;"/><path class="js-line" d="M666.04,563.41L559.63,685.98L702.68,662.64L666.04,563.41" style="vector-effect: none; fill: none; stroke: rgb(0, 0, 0); stroke-opacity: 1; stroke-width: 1.5px; opacity: 1;"/><path class="js-line" d="M282.41,830.57L146.32,737.03L138.97,854.08L282.41,830.57" style="vector-effect: none; fill: none; stroke: rgb(0, 0, 0); stroke-opacity: 1; stroke-width: 1.5px; opacity: 1;"/><path class="js-line" d="M999.41,1216.77L887.42,1299.61L1016.02,1324.88L999.41,1216.77" style="vector-effect: none; fill: none; stroke: rgb(0, 0, 0); stroke-opacity: 1; stroke-width: 1.5px; opacity: 1;"/><path class="js-line" d="M733.49,1223.29L636.3,1321.39L760.82,1338.86L733.49,1223.29" style="vector-effect: none; fill: none; stroke: rgb(0, 0, 0); stroke-opacity: 1; stroke-width: 1.5px; opacity: 1;"/><path class="js-line" d="M133.67,977.09L271.41,944.8L138.97,854.08L133.67,977.09" style="vector-effect: none; fill: none; stroke: rgb(0, 0, 0); stroke-opacity: 1; stroke-width: 1.5px; opacity: 1;"/><path class="js-line" d="M636.3,1321.39L703.12,1425L760.82,1338.86L636.3,1321.39" style="vector-effect: none; fill: none; stroke: rgb(0, 0, 0); stroke-opacity: 1; stroke-width: 1.5px; opacity: 1;"/><path class="js-line" d="M793.98,713.82L829.41,573.77L702.68,662.64L793.98,713.82" style="vector-effect: none; fill: none; stroke: rgb(0, 0, 0); stroke-opacity: 1; stroke-width: 1.5px; opacity: 1;"/><path class="js-line" d="M980.73,559.74L829.41,573.77L893.02,661.88L980.73,559.74" style="vector-effect: none; fill: none; stroke: rgb(0, 0, 0); stroke-opacity: 1; stroke-width: 1.5px; opacity: 1;"/><path class="js-line" d="M271.41,944.8L282.41,830.57L138.97,854.08L271.41,944.8" style="vector-effect: none; fill: none; stroke: rgb(0, 0, 0); stroke-opacity: 1; stroke-width: 1.5px; opacity: 1;"/><path class="js-line" d="M1125,1020L1125,885L998.51,958L1125,1020" style="vector-effect: none; fill: none; stroke: rgb(0, 0, 0); stroke-opacity: 1; stroke-width: 1.5px; opacity: 1;"/><path class="js-line" d="M413.77,764.48L282.41,830.57L407.21,899.36L413.77,764.48" style="vector-effect: none; fill: none; stroke: rgb(0, 0, 0); stroke-opacity: 1; stroke-width: 1.5px; opacity: 1;"/><path class="js-line" d="M838.53,283.19L937.5,172.43L827.32,162.46L838.53,283.19" style="vector-effect: none; fill: none; stroke: rgb(0, 0, 0); stroke-opacity: 1; stroke-width: 1.5px; opacity: 1;"/><path class="js-line" d="M351.09,1322.81L425.59,1221.04L281.54,1241.15L351.09,1322.81" style="vector-effect: none; fill: none; stroke: rgb(0, 0, 0); stroke-opacity: 1; stroke-width: 1.5px; opacity: 1;"/><path class="js-line" d="M287.01,698.62L146.32,737.03L282.41,830.57L287.01,698.62" style="vector-effect: none; fill: none; stroke: rgb(0, 0, 0); stroke-opacity: 1; stroke-width: 1.5px; opacity: 1;"/><path class="js-line" d="M1001.86,695.28L1125,615L980.73,559.74L1001.86,695.28" style="vector-effect: none; fill: none; stroke: rgb(0, 0, 0); stroke-opacity: 1; stroke-width: 1.5px; opacity: 1;"/><path class="js-line" d="M636.3,1321.39L733.49,1223.29L573.47,1221.14L636.3,1321.39" style="vector-effect: none; fill: none; stroke: rgb(0, 0, 0); stroke-opacity: 1; stroke-width: 1.5px; opacity: 1;"/><path class="js-line" d="M413.77,764.48L538.23,833.36L559.63,685.98L413.77,764.48" style="vector-effect: none; fill: none; stroke: rgb(0, 0, 0); stroke-opacity: 1; stroke-width: 1.5px; opacity: 1;"/><path class="js-line" d="M1125,1020L998.51,958L995.72,1088.47L1125,1020" style="vector-effect: none; fill: none; stroke: rgb(0, 0, 0); stroke-opacity: 1; stroke-width: 1.5px; opacity: 1;"/><path class="js-line" d="M996.69,282.8L838.53,283.19L901.7,380.19L996.69,282.8" style="vector-effect: none; fill: none; stroke: rgb(0, 0, 0); stroke-opacity: 1; stroke-width: 1.5px; opacity: 1;"/><path class="js-line" d="M0,750L0,885L138.97,854.08L0,750" style="vector-effect: none; fill: none; stroke: rgb(0, 0, 0); stroke-opacity: 1; stroke-width: 1.5px; opacity: 1;"/><path class="js-line" d="M146.32,737.03L0,750L138.97,854.08L146.32,737.03" style="vector-effect: none; fill: none; stroke: rgb(0, 0, 0); stroke-opacity: 1; stroke-width: 1.5px; opacity: 1;"/><path class="js-line" d="M538.23,833.36L531.27,968.37L655.51,906.46L538.23,833.36" style="vector-effect: none; fill: none; stroke: rgb(0, 0, 0); stroke-opacity: 1; stroke-width: 1.5px; opacity: 1;"/><path class="js-line" d="M829.41,573.77L793.98,713.82L893.02,661.88L829.41,573.77" style="vector-effect: none; fill: none; stroke: rgb(0, 0, 0); stroke-opacity: 1; stroke-width: 1.5px; opacity: 1;"/><path class="js-line" d="M887.42,1299.61L984.37,1425L1016.02,1324.88L887.42,1299.61" style="vector-effect: none; fill: none; stroke: rgb(0, 0, 0); stroke-opacity: 1; stroke-width: 1.5px; opacity: 1;"/><path class="js-line" d="M843.75,1425L984.37,1425L887.42,1299.61L843.75,1425" style="vector-effect: none; fill: none; stroke: rgb(0, 0, 0); stroke-opacity: 1; stroke-width: 1.5px; opacity: 1;"/><path class="js-line" d="M623.6,450.01L530.33,552.3L666.04,563.41L623.6,450.01" style="vector-effect: none; fill: none; stroke: rgb(0, 0, 0); stroke-opacity: 1; stroke-width: 1.5px; opacity: 1;"/><path class="js-line" d="M829.41,573.77L666.04,563.41L702.68,662.64L829.41,573.77" style="vector-effect: none; fill: none; stroke: rgb(0, 0, 0); stroke-opacity: 1; stroke-width: 1.5px; opacity: 1;"/><path class="js-line" d="M995.72,1088.47L998.51,958L873.84,1030.56L995.72,1088.47" style="vector-effect: none; fill: none; stroke: rgb(0, 0, 0); stroke-opacity: 1; stroke-width: 1.5px; opacity: 1;"/><path class="js-line" d="M0,1020L125.59,1093.35L133.67,977.09L0,1020" style="vector-effect: none; fill: none; stroke: rgb(0, 0, 0); stroke-opacity: 1; stroke-width: 1.5px; opacity: 1;"/><path class="js-line" d="M507.99,1100.34L390.11,1017.99L354.6,1126.9L507.99,1100.34" style="vector-effect: none; fill: none; stroke: rgb(0, 0, 0); stroke-opacity: 1; stroke-width: 1.5px; opacity: 1;"/><path class="js-line" d="M999.41,1216.77L870.92,1157.27L887.42,1299.61L999.41,1216.77" style="vector-effect: none; fill: none; stroke: rgb(0, 0, 0); stroke-opacity: 1; stroke-width: 1.5px; opacity: 1;"/><path class="js-line" d="M354.6,1126.9L236.54,1150.92L281.54,1241.15L354.6,1126.9" style="vector-effect: none; fill: none; stroke: rgb(0, 0, 0); stroke-opacity: 1; stroke-width: 1.5px; opacity: 1;"/><path class="js-line" d="M559.63,685.98L664.34,776.22L702.68,662.64L559.63,685.98" style="vector-effect: none; fill: none; stroke: rgb(0, 0, 0); stroke-opacity: 1; stroke-width: 1.5px; opacity: 1;"/><path class="js-line" d="M0,885L133.67,977.09L138.97,854.08L0,885" style="vector-effect: none; fill: none; stroke: rgb(0, 0, 0); stroke-opacity: 1; stroke-width: 1.5px; opacity: 1;"/><path class="js-line" d="M425.59,1221.04L507.99,1100.34L354.6,1126.9L425.59,1221.04" style="vector-effect: none; fill: none; stroke: rgb(0, 0, 0); stroke-opacity: 1; stroke-width: 1.5px; opacity: 1;"/><path class="js-line" d="M666.04,563.41L530.33,552.3L559.63,685.98L666.04,563.41" style="vector-effect: none; fill: none; stroke: rgb(0, 0, 0); stroke-opacity: 1; stroke-width: 1.5px; opacity: 1;"/><path class="js-line" d="M623.6,450.01L666.04,563.41L776.46,440.09L623.6,450.01" style="vector-effect: none; fill: none; stroke: rgb(0, 0, 0); stroke-opacity: 1; stroke-width: 1.5px; opacity: 1;"/><path class="js-line" d="M703.12,1425L843.75,1425L760.82,1338.86L703.12,1425" style="vector-effect: none; fill: none; stroke: rgb(0, 0, 0); stroke-opacity: 1; stroke-width: 1.5px; opacity: 1;"/><path class="js-line" d="M760.87,974.28L873.84,1030.56L882.47,911.87L760.87,974.28" style="vector-effect: none; fill: none; stroke: rgb(0, 0, 0); stroke-opacity: 1; stroke-width: 1.5px; opacity: 1;"/><path class="js-line" d="M937.5,172.43L838.53,283.19L996.69,282.8L937.5,172.43" style="vector-effect: none; fill: none; stroke: rgb(0, 0, 0); stroke-opacity: 1; stroke-width: 1.5px; opacity: 1;"/><path class="js-line" d="M125.59,1093.35L0,1155L139.06,1227.54L125.59,1093.35" style="vector-effect: none; fill: none; stroke: rgb(0, 0, 0); stroke-opacity: 1; stroke-width: 1.5px; opacity: 1;"/><path class="js-line" d="M870.92,1157.27L873.84,1030.56L753.66,1104.32L870.92,1157.27" style="vector-effect: none; fill: none; stroke: rgb(0, 0, 0); stroke-opacity: 1; stroke-width: 1.5px; opacity: 1;"/><path class="js-line" d="M735.59,206.69L692.91,333.31L838.53,283.19L735.59,206.69" style="vector-effect: none; fill: none; stroke: rgb(0, 0, 0); stroke-opacity: 1; stroke-width: 1.5px; opacity: 1;"/><path class="js-line" d="M0,885L0,1020L133.67,977.09L0,885" style="vector-effect: none; fill: none; stroke: rgb(0, 0, 0); stroke-opacity: 1; stroke-width: 1.5px; opacity: 1;"/><path class="js-line" d="M655.51,906.46L531.27,968.37L644.59,1033.5L655.51,906.46" style="vector-effect: none; fill: none; stroke: rgb(0, 0, 0); stroke-opacity: 1; stroke-width: 1.5px; opacity: 1;"/><path class="js-line" d="M236.54,1150.92L139.06,1227.54L281.54,1241.15L236.54,1150.92" style="vector-effect: none; fill: none; stroke: rgb(0, 0, 0); stroke-opacity: 1; stroke-width: 1.5px; opacity: 1;"/><path class="js-line" d="M1125,750L1125,615L1001.86,695.28L1125,750" style="vector-effect: none; fill: none; stroke: rgb(0, 0, 0); stroke-opacity: 1; stroke-width: 1.5px; opacity: 1;"/><path class="js-line" d="M507.99,1100.34L425.59,1221.04L573.47,1221.14L507.99,1100.34" style="vector-effect: none; fill: none; stroke: rgb(0, 0, 0); stroke-opacity: 1; stroke-width: 1.5px; opacity: 1;"/><path class="js-line" d="M538.23,833.36L664.34,776.22L559.63,685.98L538.23,833.36" style="vector-effect: none; fill: none; stroke: rgb(0, 0, 0); stroke-opacity: 1; stroke-width: 1.5px; opacity: 1;"/><path class="js-line" d="M984.37,1425L1125,1425L1016.02,1324.88L984.37,1425" style="vector-effect: none; fill: none; stroke: rgb(0, 0, 0); stroke-opacity: 1; stroke-width: 1.5px; opacity: 1;"/><path class="js-line" d="M413.77,764.48L407.21,899.36L538.23,833.36L413.77,764.48" style="vector-effect: none; fill: none; stroke: rgb(0, 0, 0); stroke-opacity: 1; stroke-width: 1.5px; opacity: 1;"/><path class="js-line" d="M644.59,1033.5L531.27,968.37L507.99,1100.34L644.59,1033.5" style="vector-effect: none; fill: none; stroke: rgb(0, 0, 0); stroke-opacity: 1; stroke-width: 1.5px; opacity: 1;"/><path class="js-line" d="M531.27,968.37L407.21,899.36L390.11,1017.99L531.27,968.37" style="vector-effect: none; fill: none; stroke: rgb(0, 0, 0); stroke-opacity: 1; stroke-width: 1.5px; opacity: 1;"/><path class="js-line" d="M413.77,764.48L287.01,698.62L282.41,830.57L413.77,764.48" style="vector-effect: none; fill: none; stroke: rgb(0, 0, 0); stroke-opacity: 1; stroke-width: 1.5px; opacity: 1;"/><path class="js-line" d="M1125,615L1125,480L980.73,559.74L1125,615" style="vector-effect: none; fill: none; stroke: rgb(0, 0, 0); stroke-opacity: 1; stroke-width: 1.5px; opacity: 1;"/><path class="js-line" d="M644.59,1033.5L753.66,1104.32L760.87,974.28L644.59,1033.5" style="vector-effect: none; fill: none; stroke: rgb(0, 0, 0); stroke-opacity: 1; stroke-width: 1.5px; opacity: 1;"/><path class="js-line" d="M530.33,552.3L416.68,636.24L559.63,685.98L530.33,552.3" style="vector-effect: none; fill: none; stroke: rgb(0, 0, 0); stroke-opacity: 1; stroke-width: 1.5px; opacity: 1;"/><path class="js-line" d="M776.46,440.09L891.33,475.73L901.7,380.19L776.46,440.09" style="vector-effect: none; fill: none; stroke: rgb(0, 0, 0); stroke-opacity: 1; stroke-width: 1.5px; opacity: 1;"/><path class="js-line" d="M407.21,899.36L282.41,830.57L271.41,944.8L407.21,899.36" style="vector-effect: none; fill: none; stroke: rgb(0, 0, 0); stroke-opacity: 1; stroke-width: 1.5px; opacity: 1;"/><path class="js-line" d="M887.42,1299.61L870.92,1157.27L733.49,1223.29L887.42,1299.61" style="vector-effect: none; fill: none; stroke: rgb(0, 0, 0); stroke-opacity: 1; stroke-width: 1.5px; opacity: 1;"/><path class="js-line" d="M351.09,1322.81L492.69,1318.77L425.59,1221.04L351.09,1322.81" style="vector-effect: none; fill: none; stroke: rgb(0, 0, 0); stroke-opacity: 1; stroke-width: 1.5px; opacity: 1;"/><path class="js-line" d="M692.91,333.31L623.6,450.01L776.46,440.09L692.91,333.31" style="vector-effect: none; fill: none; stroke: rgb(0, 0, 0); stroke-opacity: 1; stroke-width: 1.5px; opacity: 1;"/><path class="js-line" d="M937.5,172.43L996.69,282.8L1036.84,163.05L937.5,172.43" style="vector-effect: none; fill: none; stroke: rgb(0, 0, 0); stroke-opacity: 1; stroke-width: 1.5px; opacity: 1;"/><path class="js-line" d="M562.5,1425L703.12,1425L636.3,1321.39L562.5,1425" style="vector-effect: none; fill: none; stroke: rgb(0, 0, 0); stroke-opacity: 1; stroke-width: 1.5px; opacity: 1;"/><path class="js-line" d="M416.68,636.24L413.77,764.48L559.63,685.98L416.68,636.24" style="vector-effect: none; fill: none; stroke: rgb(0, 0, 0); stroke-opacity: 1; stroke-width: 1.5px; opacity: 1;"/><path class="js-line" d="M351.09,1322.81L421.87,1425L492.69,1318.77L351.09,1322.81" style="vector-effect: none; fill: none; stroke: rgb(0, 0, 0); stroke-opacity: 1; stroke-width: 1.5px; opacity: 1;"/><path class="js-line" d="M1125,480L1005.49,419.15L980.73,559.74L1125,480" style="vector-effect: none; fill: none; stroke: rgb(0, 0, 0); stroke-opacity: 1; stroke-width: 1.5px; opacity: 1;"/><path class="js-line" d="M664.34,776.22L655.51,906.46L782.8,845.69L664.34,776.22" style="vector-effect: none; fill: none; stroke: rgb(0, 0, 0); stroke-opacity: 1; stroke-width: 1.5px; opacity: 1;"/><path class="js-line" d="M390.11,1017.99L407.21,899.36L271.41,944.8L390.11,1017.99" style="vector-effect: none; fill: none; stroke: rgb(0, 0, 0); stroke-opacity: 1; stroke-width: 1.5px; opacity: 1;"/><path class="js-line" d="M562.5,1425L636.3,1321.39L492.69,1318.77L562.5,1425" style="vector-effect: none; fill: none; stroke: rgb(0, 0, 0); stroke-opacity: 1; stroke-width: 1.5px; opacity: 1;"/><path class="js-line" d="M492.69,1318.77L636.3,1321.39L573.47,1221.14L492.69,1318.77" style="vector-effect: none; fill: none; stroke: rgb(0, 0, 0); stroke-opacity: 1; stroke-width: 1.5px; opacity: 1;"/><path class="js-line" d="M753.66,1104.32L873.84,1030.56L760.87,974.28L753.66,1104.32" style="vector-effect: none; fill: none; stroke: rgb(0, 0, 0); stroke-opacity: 1; stroke-width: 1.5px; opacity: 1;"/><path class="js-line" d="M281.25,1425L421.87,1425L351.09,1322.81L281.25,1425" style="vector-effect: none; fill: none; stroke: rgb(0, 0, 0); stroke-opacity: 1; stroke-width: 1.5px; opacity: 1;"/><path class="js-line" d="M980.73,559.74L1005.49,419.15L891.33,475.73L980.73,559.74" style="vector-effect: none; fill: none; stroke: rgb(0, 0, 0); stroke-opacity: 1; stroke-width: 1.5px; opacity: 1;"/><path class="js-line" d="M829.41,573.77L980.73,559.74L891.33,475.73L829.41,573.77" style="vector-effect: none; fill: none; stroke: rgb(0, 0, 0); stroke-opacity: 1; stroke-width: 1.5px; opacity: 1;"/><path class="js-line" d="M125.59,1093.35L236.54,1150.92L253.03,1051.04L125.59,1093.35" style="vector-effect: none; fill: none; stroke: rgb(0, 0, 0); stroke-opacity: 1; stroke-width: 1.5px; opacity: 1;"/><path class="js-line" d="M1125,1425L1125,1290L1016.02,1324.88L1125,1425" style="vector-effect: none; fill: none; stroke: rgb(0, 0, 0); stroke-opacity: 1; stroke-width: 1.5px; opacity: 1;"/><path class="js-line" d="M882.47,911.87L1002.66,830.99L887.77,779.48L882.47,911.87" style="vector-effect: none; fill: none; stroke: rgb(0, 0, 0); stroke-opacity: 1; stroke-width: 1.5px; opacity: 1;"/><path class="js-line" d="M735.59,206.69L838.53,283.19L827.32,162.46L735.59,206.69" style="vector-effect: none; fill: none; stroke: rgb(0, 0, 0); stroke-opacity: 1; stroke-width: 1.5px; opacity: 1;"/><path class="js-line" d="M1001.86,695.28L980.73,559.74L893.02,661.88L1001.86,695.28" style="vector-effect: none; fill: none; stroke: rgb(0, 0, 0); stroke-opacity: 1; stroke-width: 1.5px; opacity: 1;"/><path class="js-line" d="M0,1290L0,1425L100.11,1334.61L0,1290" style="vector-effect: none; fill: none; stroke: rgb(0, 0, 0); stroke-opacity: 1; stroke-width: 1.5px; opacity: 1;"/><path class="js-line" d="M998.51,958L1002.66,830.99L882.47,911.87L998.51,958" style="vector-effect: none; fill: none; stroke: rgb(0, 0, 0); stroke-opacity: 1; stroke-width: 1.5px; opacity: 1;"/><path class="js-line" d="M133.67,977.09L125.59,1093.35L253.03,1051.04L133.67,977.09" style="vector-effect: none; fill: none; stroke: rgb(0, 0, 0); stroke-opacity: 1; stroke-width: 1.5px; opacity: 1;"/><path class="js-line" d="M281.25,1425L351.09,1322.81L215.2,1329.97L281.25,1425" style="vector-effect: none; fill: none; stroke: rgb(0, 0, 0); stroke-opacity: 1; stroke-width: 1.5px; opacity: 1;"/><path class="js-line" d="M139.06,1227.54L215.2,1329.97L281.54,1241.15L139.06,1227.54" style="vector-effect: none; fill: none; stroke: rgb(0, 0, 0); stroke-opacity: 1; stroke-width: 1.5px; opacity: 1;"/><path class="js-line" d="M1125,75L1000,75L1036.84,163.05L1125,75" style="vector-effect: none; fill: none; stroke: rgb(0, 0, 0); stroke-opacity: 1; stroke-width: 1.5px; opacity: 1;"/><path class="js-line" d="M140.62,1425L281.25,1425L215.2,1329.97L140.62,1425" style="vector-effect: none; fill: none; stroke: rgb(0, 0, 0); stroke-opacity: 1; stroke-width: 1.5px; opacity: 1;"/><path class="js-line" d="M1000,75L875,75L937.5,172.43L1000,75" style="vector-effect: none; fill: none; stroke: rgb(0, 0, 0); stroke-opacity: 1; stroke-width: 1.5px; opacity: 1;"/><path class="js-line" d="M271.41,944.8L133.67,977.09L253.03,1051.04L271.41,944.8" style="vector-effect: none; fill: none; stroke: rgb(0, 0, 0); stroke-opacity: 1; stroke-width: 1.5px; opacity: 1;"/><path class="js-line" d="M782.8,845.69L655.51,906.46L760.87,974.28L782.8,845.69" style="vector-effect: none; fill: none; stroke: rgb(0, 0, 0); stroke-opacity: 1; stroke-width: 1.5px; opacity: 1;"/><path class="js-line" d="M750,75L735.59,206.69L827.32,162.46L750,75" style="vector-effect: none; fill: none; stroke: rgb(0, 0, 0); stroke-opacity: 1; stroke-width: 1.5px; opacity: 1;"/><path class="js-line" d="M996.69,282.8L1125,210L1036.84,163.05L996.69,282.8" style="vector-effect: none; fill: none; stroke: rgb(0, 0, 0); stroke-opacity: 1; stroke-width: 1.5px; opacity: 1;"/><path class="js-line" d="M782.8,845.69L760.87,974.28L882.47,911.87L782.8,845.69" style="vector-effect: none; fill: none; stroke: rgb(0, 0, 0); stroke-opacity: 1; stroke-width: 1.5px; opacity: 1;"/><path class="js-line" d="M538.23,833.36L407.21,899.36L531.27,968.37L538.23,833.36" style="vector-effect: none; fill: none; stroke: rgb(0, 0, 0); stroke-opacity: 1; stroke-width: 1.5px; opacity: 1;"/><path class="js-line" d="M887.77,779.48L1001.86,695.28L893.02,661.88L887.77,779.48" style="vector-effect: none; fill: none; stroke: rgb(0, 0, 0); stroke-opacity: 1; stroke-width: 1.5px; opacity: 1;"/><path class="js-line" d="M1005.49,419.15L1125,345L996.69,282.8L1005.49,419.15" style="vector-effect: none; fill: none; stroke: rgb(0, 0, 0); stroke-opacity: 1; stroke-width: 1.5px; opacity: 1;"/><path class="js-line" d="M1005.49,419.15L996.69,282.8L901.7,380.19L1005.49,419.15" style="vector-effect: none; fill: none; stroke: rgb(0, 0, 0); stroke-opacity: 1; stroke-width: 1.5px; opacity: 1;"/><path class="js-line" d="M1125,480L1125,345L1005.49,419.15L1125,480" style="vector-effect: none; fill: none; stroke: rgb(0, 0, 0); stroke-opacity: 1; stroke-width: 1.5px; opacity: 1;"/><path class="js-line" d="M875,75L750,75L827.32,162.46L875,75" style="vector-effect: none; fill: none; stroke: rgb(0, 0, 0); stroke-opacity: 1; stroke-width: 1.5px; opacity: 1;"/><path class="js-line" d="M776.46,440.09L829.41,573.77L891.33,475.73L776.46,440.09" style="vector-effect: none; fill: none; stroke: rgb(0, 0, 0); stroke-opacity: 1; stroke-width: 1.5px; opacity: 1;"/></g><g class="points"/><g class="text"/></g></g></g><g class="overplot"/><path class="xlines-above crisp" d="M0,0" style="fill: none;"/><path class="ylines-above crisp" d="M0,0" style="fill: none;"/><g class="overlines-above"/><g class="xaxislayer-above"/><g class="yaxislayer-above"/><g class="overaxes-above"/></g></g><g class="polarlayer"/><g class="smithlayer"/><g class="ternarylayer"/><g class="geolayer"/><g class="funnelarealayer"/><g class="pielayer"/><g class="iciclelayer"/><g class="treemaplayer"/><g class="sunburstlayer"/><g class="glimages"/><defs id="topdefs-ac090b"><g class="clips"/></defs><g class="layer-above"><g class="imagelayer"/><g class="shapelayer"/></g><g class="infolayer"><g class="g-gtitle"/></g></svg>