<svg class="main-svg" xmlns="http://www.w3.org/2000/svg" xmlns:xlink="http://www.w3.org/1999/xlink" width="1000" height="625" style="" viewBox="0 0 1000 625"><rect x="0" y="0" width="1000" height="625" style="fill: rgb(255, 255, 255); fill-opacity: 1;"/><defs id="defs-a2ddaf"><g class="clips"><clipPath id="clipa2ddafxyplot" class="plotclip"><rect width="897" height="625"/></clipPath><clipPath class="axesclip" id="clipa2ddafx"><rect x="0" y="0" width="897" height="625"/></clipPath><clipPath class="axesclip" id="clipa2ddafy"><rect x="0" y="0" width="1000" height="625"/></clipPath><clipPath class="axesclip" id="clipa2ddafxy"><rect x="0" y="0" width="897" height="625"/></clipPath><clipPath class="contourclip" id="clipf4e6e6"><path d="M0,0L897,0L897,625L0,625Z"/></clipPath></g><g class="gradients"/><g class="patterns"/></defs><g class="bglayer"/><g class="layer-below"><g class="imagelayer"/><g class="shapelayer"/></g><g class="cartesianlayer"><g class="subplot xy"><g class="layer-subplot"><g class="shapelayer"/><g class="imagelayer"/></g><g class="minor-gridlayer"><g class="x"/><g class="y"/></g><g class="gridlayer"><g class="x"/><g class="y"/></g><g class="zerolinelayer"/><path class="xlines-below"/><path class="ylines-below"/><g class="overlines-below"/><g class="xaxislayer-below"/><g class="yaxislayer-below"/><g class="overaxes-below"/><g class="plot" transform="" clip-path="url(#clipa2ddafxyplot)"><g class="contourlayer mlayer"><g class="contour" clip-path="url(#clipf4e6e6)" style="opacity: 1;"><g class="heatmapcoloring"/><g class="contourbg"><path d="M0,0L897,0L897,625L0,625Z" style="stroke: none; fill: rgb(13, 8, 135);"/></g><g class="contourfill"><path d="M897,568.63L0,568.63L0,0L897,0Z" style="stroke: none; fill: rgb(60, 4, 155);"/><path d="M897,512.27L0,512.27L0,0L897,0Z" style="stroke: none; fill: rgb(98, 2, 165);"/><path d="M897,455.9L0,455.9L0,0L897,0Z" style="stroke: none; fill: rgb(133, 11, 163);"/><path d="M897,399.54L0,399.54L0,0L897,0Z" style="stroke: none; fill: rgb(165, 32, 151);"/><path d="M897,343.17L0,343.17L0,0L897,0Z" style="stroke: none; fill: rgb(191, 58, 132);"/><path d="M897,286.81L0,286.81L0,0L897,0Z" style="stroke: none; fill: rgb(214, 84, 109);"/><path d="M897,230.44L0,230.44L0,0L897,0Z" style="stroke: none; fill: rgb(231, 112, 90);"/><path d="M897,174.08L0,174.08L0,0L897,0Z" style="stroke: none; fill: rgb(245, 142, 69);"/><path d="M897,117.71L0,117.71L0,0L897,0Z" style="stroke: none; fill: rgb(252, 175, 51);"/><path d="M897,61.35L0,61.35L0,0L897,0Z" style="stroke: none; fill: rgb(251, 211, 37);"/><path d="M897,4.98L0,4.98L0,0L897,0Z" style="stroke: none; fill: rgb(240, 249, 33);"/></g><g class="contourlines"><g class="contourlevel"><path class="openline" d="M897,568.63L0,568.63" style="stroke-miterlimit: 1; vector-effect: none; fill: none; stroke: rgb(0, 0, 0); stroke-opacity: 1; stroke-width: 0.5px;"/></g><g class="contourlevel"><path class="openline" d="M897,512.27L0,512.27" style="stroke-miterlimit: 1; vector-effect: none; fill: none; stroke: rgb(0, 0, 0); stroke-opacity: 1; stroke-width: 0.5px;"/></g><g class="contourlevel"><path class="openline" d="M897,455.9L0,455.9" style="stroke-miterlimit: 1; vector-effect: none; fill: none; stroke: rgb(0, 0, 0); stroke-opacity: 1; stroke-width: 0.5px;"/></g><g class="contourlevel"><path class="openline" d="M897,399.54L0,399.54" style="stroke-miterlimit: 1; vector-effect: none; fill: none; stroke: rgb(0, 0, 0); stroke-opacity: 1; stroke-width: 0.5px;"/></g><g class="contourlevel"><path class="openline" d="M897,343.17L0,343.17" style="stroke-miterlimit: 1; vector-effect: none; fill: none; stroke: rgb(0, 0, 0); stroke-opacity: 1; stroke-width: 0.5px;"/></g><g class="contourlevel"><path class="openline" d="M897,286.81L0,286.81" style="stroke-miterlimit: 1; vector-effect: none; fill: none; stroke: rgb(0, 0, 0); stroke-opacity: 1; stroke-width: 0.5px;"/></g><g class="contourlevel"><path class="openline" d="M897,230.44L0,230.44" style="stroke-miterlimit: 1; vector-effect: none; fill: none; stroke: rgb(0, 0, 0); stroke-opacity: 1; stroke-width: 0.5px;"/></g><g class="contourlevel"><path class="openline" d="M897,174.08L0,174.08" style="stroke-miterlimit: 1; vector-effect: none; fill: none; stroke: rgb(0, 0, 0); stroke-opacity: 1; stroke-width: 0.5px;"/></g><g class="contourlevel"><path class="openline" d="M897,117.71L0,117.71" style="stroke-miterlimit: 1; vector-effect: none; fill: none; stroke: rgb(0, 0, 0); stroke-opacity: 1; stroke-width: 0.5px;"/></g><g class="contourlevel"><path class="openline" d="M897,61.35L0,61.35" style="stroke-miterlimit: 1; vector-effect: none; fill: none; stroke: rgb(0, 0, 0); stroke-opacity: 1; stroke-width: 0.5px;"/></g><g class="contourlevel"><path class="openline" d="M897,4.98L0,4.98" style="stroke-miterlimit: 1; vector-effect: none; fill: none; stroke: rgb(0, 0, 0); stroke-opacity: 1; stroke-width: 0.5px;"/></g></g></g></g></g><g class="overplot"/><path class="xlines-above crisp" d="M0,0" style="fill: none;"/><path class="ylines-above crisp" d="M0,0" style="fill: none;"/><g class="overlines-above"/><g class="xaxislayer-above"/><g class="yaxislayer-above"/><g class="overaxes-above"/></g></g><g class="polarlayer"/><g class="smithlayer"/><g class="ternarylayer"/><g class="geolayer"/><g class="funnelarealayer"/><g class="pielayer"/><g class="iciclelayer"/><g class="treemaplayer"/><g class="sunburstlayer"/><g class="glimages"/><defs id="topdefs-a2ddaf"><g class="clips"/></defs><g class="layer-above"><g class="imagelayer"/><g class="shapelayer"/></g><g class="infolayer"><g class="cbf4e6e6 colorbar" transform=""><rect class="cbbg" x="915" y="0" width="85.265625" height="625" style="fill: rgb(0, 0, 0); fill-opacity: 0; stroke: rgb(68, 68, 68); stroke-opacity: 1; stroke-width: 0;"/><g class="cbfills" transform="translate(0,10)"><rect class="cbfill" x="925" y="1" width="30" height="604" fill="#0d0887" style=""/><rect class="cbfill" x="925" y="1" width="30" height="577" fill="#3c049b" style=""/><rect class="cbfill" x="925" y="1" width="30" height="522" fill="#6202a5" style=""/><rect class="cbfill" x="925" y="1" width="30" height="467" fill="#850ba3" style=""/><rect class="cbfill" x="925" y="1" width="30" height="412" fill="#a52097" style=""/><rect class="cbfill" x="925" y="1" width="30" height="357" fill="#bf3a84" style=""/><rect class="cbfill" x="925" y="1" width="30" height="302" fill="#d6546d" style=""/><rect class="cbfill" x="925" y="1" width="30" height="247" fill="#e7705a" style=""/><rect class="cbfill" x="925" y="1" width="30" height="192" fill="#f58e45" style=""/><rect class="cbfill" x="925" y="1" width="30" height="137" fill="#fcaf33" style=""/><rect class="cbfill" x="925" y="1" width="30" height="82" fill="#fbd325" style=""/><rect class="cbfill" x="925" y="0" width="30" height="28" fill="#f0f921" style=""/></g><g class="cblines" transform="translate(0,10)"><path class="cbline" d="M925,578.25h30" style="fill: none; stroke: rgb(0, 0, 0); stroke-opacity: 1; stroke-width: 0.5px;"/><path class="cbline" d="M925,523.25h30" style="fill: none; stroke: rgb(0, 0, 0); stroke-opacity: 1; stroke-width: 0.5px;"/><path class="cbline" d="M925,468.25h30" style="fill: none; stroke: rgb(0, 0, 0); stroke-opacity: 1; stroke-width: 0.5px;"/><path class="cbline" d="M925,413.25h30" style="fill: none; stroke: rgb(0, 0, 0); stroke-opacity: 1; stroke-width: 0.5px;"/><path class="cbline" d="M925,358.25h30" style="fill: none; stroke: rgb(0, 0, 0); stroke-opacity: 1; stroke-width: 0.5px;"/><path class="cbline" d="M925,303.25h30" style="fill: none; stroke: rgb(0, 0, 0); stroke-opacity: 1; stroke-width: 0.5px;"/><path class="cbline" d="M925,248.25h30" style="fill: none; stroke: rgb(0, 0, 0); stroke-opacity: 1; stroke-width: 0.5px;"/><path class="cbline" d="M925,193.25h30" style="fill: none; stroke: rgb(0, 0, 0); stroke-opacity: 1; stroke-width: 0.5px;"/><path class="cbline" d="M925,138.25h30" style="fill: none; stroke: rgb(0, 0, 0); stroke-opacity: 1; stroke-width: 0.5px;"/><path class="cbline" d="M925,83.25h30" style="fill: none; stroke: rgb(0, 0, 0); stroke-opacity: 1; stroke-width: 0.5px;"/><path class="cbline" d="M925,28.25h30" style="fill: none; stroke: rgb(0, 0, 0); stroke-opacity: 1; stroke-width: 0.5px;"/></g><g class="cbaxis crisp" transform=""><g class="ycbf4e6e6tick"><text text-anchor="start" x="957.9" y="4.199999999999999" transform="translate(0,587.5)" style="font-family: 'Open Sans', verdana, arial, sans-serif; font-size: 12px; fill: rgb(42, 63, 95); fill-opacity: 1; white-space: pre; opacity: 1;">0.005</text></g><g class="ycbf4e6e6tick"><text text-anchor="start" x="957.9" y="4.199999999999999" style="font-family: 'Open Sans', verdana, arial, sans-serif; font-size: 12px; fill: rgb(42, 63, 95); fill-opacity: 1; white-space: pre; opacity: 1;" transform="translate(0,532.5)">0.01</text></g><g class="ycbf4e6e6tick"><text text-anchor="start" x="957.9" y="4.199999999999999" style="font-family: 'Open Sans', verdana, arial, sans-serif; font-size: 12px; fill: rgb(42, 63, 95); fill-opacity: 1; white-space: pre; opacity: 1;" transform="translate(0,477.5)">0.015</text></g><g class="ycbf4e6e6tick"><text text-anchor="start" x="957.9" y="4.199999999999999" style="font-family: 'Open Sans', verdana, arial, sans-serif; font-size: 12px; fill: rgb(42, 63, 95); fill-opacity: 1; white-space: pre; opacity: 1;" transform="translate(0,422.5)">0.02</text></g><g class="ycbf4e6e6tick"><text text-anchor="start" x="957.9" y="4.199999999999999" style="font-family: 'Open Sans', verdana, arial, sans-serif; font-size: 12px; fill: rgb(42, 63, 95); fill-opacity: 1; white-space: pre; opacity: 1;" transform="translate(0,367.5)">0.025</text></g><g class="ycbf4e6e6tick"><text text-anchor="start" x="957.9" y="4.199999999999999" style="font-family: 'Open Sans', verdana, arial, sans-serif; font-size: 12px; fill: rgb(42, 63, 95); fill-opacity: 1; white-space: pre; opacity: 1;" transform="translate(0,312.5)">0.03</text></g><g class="ycbf4e6e6tick"><text text-anchor="start" x="957.9" y="4.199999999999999" style="font-family: 'Open Sans', verdana, arial, sans-serif; font-size: 12px; fill: rgb(42, 63, 95); fill-opacity: 1; white-space: pre; opacity: 1;" transform="translate(0,257.5)">0.035</text></g><g class="ycbf4e6e6tick"><text text-anchor="start" x="957.9" y="4.199999999999999" style="font-family: 'Open Sans', verdana, arial, sans-serif; font-size: 12px; fill: rgb(42, 63, 95); fill-opacity: 1; white-space: pre; opacity: 1;" transform="translate(0,202.5)">0.04</text></g><g class="ycbf4e6e6tick"><text text-anchor="start" x="957.9" y="4.199999999999999" style="font-family: 'Open Sans', verdana, arial, sans-serif; font-size: 12px; fill: rgb(42, 63, 95); fill-opacity: 1; white-space: pre; opacity: 1;" transform="translate(0,147.5)">0.045</text></g><g class="ycbf4e6e6tick"><text text-anchor="start" x="957.9" y="4.199999999999999" style="font-family: 'Open Sans', verdana, arial, sans-serif; font-size: 12px; fill: rgb(42, 63, 95); fill-opacity: 1; white-space: pre; opacity: 1;" transform="translate(0,92.50000000000001)">0.05</text></g><g class="ycbf4e6e6tick"><text text-anchor="start" x="957.9" y="4.199999999999999" style="font-family: 'Open Sans', verdana, arial, sans-serif; font-size: 12px; fill: rgb(42, 63, 95); fill-opacity: 1; white-space: pre; opacity: 1;" transform="translate(0,37.50000000000001)">0.055</text></g></g><g class="cbtitleunshift" transform=""><g class="cbtitle"/></g><rect class="cboutline" x="925" y="10" width="30" height="605" style="stroke: rgb(68, 68, 68); stroke-opacity: 1; fill: none; stroke-width: 0;"/></g><g class="g-gtitle"/></g></svg>