<svg class="main-svg" xmlns="http://www.w3.org/2000/svg" xmlns:xlink="http://www.w3.org/1999/xlink" width="1000" height="625" style="" viewBox="0 0 1000 625"><rect x="0" y="0" width="1000" height="625" style="fill: rgb(255, 255, 255); fill-opacity: 1;"/><defs id="defs-0302ca"><g class="clips"><clipPath id="clip0302caxyplot" class="plotclip"><rect width="904" height="625"/></clipPath><clipPath class="axesclip" id="clip0302cax"><rect x="0" y="0" width="904" height="625"/></clipPath><clipPath class="axesclip" id="clip0302cay"><rect x="0" y="0" width="1000" height="625"/></clipPath><clipPath class="axesclip" id="clip0302caxy"><rect x="0" y="0" width="904" height="625"/></clipPath><clipPath class="contourclip" id="clipc9ce3e"><path d="M0,0L904,0L904,625L0,625Z"/></clipPath></g><g class="gradients"/><g class="patterns"/></defs><g class="bglayer"/><g class="layer-below"><g class="imagelayer"/><g class="shapelayer"/></g><g class="cartesianlayer"><g class="subplot xy"><g class="layer-subplot"><g class="shapelayer"/><g class="imagelayer"/></g><g class="minor-gridlayer"><g class="x"/><g class="y"/></g><g class="gridlayer"><g class="x"/><g class="y"/></g><g class="zerolinelayer"/><path class="xlines-below"/><path class="ylines-below"/><g class="overlines-below"/><g class="xaxislayer-below"/><g class="yaxislayer-below"/><g class="overaxes-below"/><g class="plot" transform="" clip-path="url(#clip0302caxyplot)"><g class="contourlayer mlayer"><g class="contour" clip-path="url(#clipc9ce3e)" style="opacity: 1;"><g class="heatmapcoloring"/><g class="contourbg"><path d="M0,0L904,0L904,625L0,625Z" style="stroke: none; fill: rgb(13, 8, 135);"/></g><g class="contourfill"><path d="M904,559.45L0,559.45L0,0L904,0Z" style="stroke: none; fill: rgb(70, 3, 159);"/><path d="M904,493.91L0,493.91L0,0L904,0Z" style="stroke: none; fill: rgb(114, 1, 168);"/><path d="M904,428.36L0,428.36L0,0L904,0Z" style="stroke: none; fill: rgb(156, 23, 158);"/><path d="M904,362.81L0,362.81L0,0L904,0Z" style="stroke: none; fill: rgb(189, 55, 134);"/><path d="M904,297.26L0,297.26L0,0L904,0Z" style="stroke: none; fill: rgb(216, 87, 107);"/><path d="M904,231.72L0,231.72L0,0L904,0Z" style="stroke: none; fill: rgb(237, 121, 83);"/><path d="M904,166.17L0,166.17L0,0L904,0Z" style="stroke: none; fill: rgb(251, 159, 58);"/><path d="M904,100.62L0,100.62L0,0L904,0Z" style="stroke: none; fill: rgb(253, 202, 38);"/><path d="M904,35.08L0,35.08L0,0L904,0Z" style="stroke: none; fill: rgb(240, 249, 33);"/></g><g class="contourlines"><g class="contourlevel"><path class="openline" d="M904,559.45L0,559.45" style="stroke-miterlimit: 1; vector-effect: none; fill: none; stroke: rgb(0, 0, 0); stroke-opacity: 1; stroke-width: 0.5px;"/></g><g class="contourlevel"><path class="openline" d="M904,493.91L0,493.91" style="stroke-miterlimit: 1; vector-effect: none; fill: none; stroke: rgb(0, 0, 0); stroke-opacity: 1; stroke-width: 0.5px;"/></g><g class="contourlevel"><path class="openline" d="M904,428.36L0,428.36" style="stroke-miterlimit: 1; vector-effect: none; fill: none; stroke: rgb(0, 0, 0); stroke-opacity: 1; stroke-width: 0.5px;"/></g><g class="contourlevel"><path class="openline" d="M904,362.81L0,362.81" style="stroke-miterlimit: 1; vector-effect: none; fill: none; stroke: rgb(0, 0, 0); stroke-opacity: 1; stroke-width: 0.5px;"/></g><g class="contourlevel"><path class="openline" d="M904,297.26L0,297.26" style="stroke-miterlimit: 1; vector-effect: none; fill: none; stroke: rgb(0, 0, 0); stroke-opacity: 1; stroke-width: 0.5px;"/></g><g class="contourlevel"><path class="openline" d="M904,231.72L0,231.72" style="stroke-miterlimit: 1; vector-effect: none; fill: none; stroke: rgb(0, 0, 0); stroke-opacity: 1; stroke-width: 0.5px;"/></g><g class="contourlevel"><path class="openline" d="M904,166.17L0,166.17" style="stroke-miterlimit: 1; vector-effect: none; fill: none; stroke: rgb(0, 0, 0); stroke-opacity: 1; stroke-width: 0.5px;"/></g><g class="contourlevel"><path class="openline" d="M904,100.62L0,100.62" style="stroke-miterlimit: 1; vector-effect: none; fill: none; stroke: rgb(0, 0, 0); stroke-opacity: 1; stroke-width: 0.5px;"/></g><g class="contourlevel"><path class="openline" d="M904,35.08L0,35.08" style="stroke-miterlimit: 1; vector-effect: none; fill: none; stroke: rgb(0, 0, 0); stroke-opacity: 1; stroke-width: 0.5px;"/></g></g></g></g></g><g class="overplot"/><path class="xlines-above crisp" d="M0,0" style="fill: none;"/><path class="ylines-above crisp" d="M0,0" style="fill: none;"/><g class="overlines-above"/><g class="xaxislayer-above"/><g class="yaxislayer-above"/><g class="overaxes-above"/></g></g><g class="polarlayer"/><g class="smithlayer"/><g class="ternarylayer"/><g class="geolayer"/><g class="funnelarealayer"/><g class="pielayer"/><g class="iciclelayer"/><g class="treemaplayer"/><g class="sunburstlayer"/><g class="glimages"/><defs id="topdefs-0302ca"><g class="clips"/></defs><g class="layer-above"><g class="imagelayer"/><g class="shapelayer"/></g><g class="infolayer"><g class="cbc9ce3e colorbar" transform=""><rect class="cbbg" x="922" y="0" width="77.640625" height="625" style="fill: rgb(0, 0, 0); fill-opacity: 0; stroke: rgb(68, 68, 68); stroke-opacity: 1; stroke-width: 0;"/><g class="cbfills" transform="translate(0,10)"><rect class="cbfill" x="932" y="1" width="30" height="604" fill="#0d0887" style=""/><rect class="cbfill" x="932" y="1" width="30" height="570" fill="#46039f" style=""/><rect class="cbfill" x="932" y="1" width="30" height="503" fill="#7201a8" style=""/><rect class="cbfill" x="932" y="1" width="30" height="436" fill="#9c179e" style=""/><rect class="cbfill" x="932" y="1" width="30" height="369" fill="#bd3786" style=""/><rect class="cbfill" x="932" y="1" width="30" height="302" fill="#d8576b" style=""/><rect class="cbfill" x="932" y="1" width="30" height="234" fill="#ed7953" style=""/><rect class="cbfill" x="932" y="1" width="30" height="167" fill="#fb9f3a" style=""/><rect class="cbfill" x="932" y="1" width="30" height="100" fill="#fdca26" style=""/><rect class="cbfill" x="932" y="0" width="30" height="34" fill="#f0f921" style=""/></g><g class="cblines" transform="translate(0,10)"><path class="cbline" d="M932,571.25h30" style="fill: none; stroke: rgb(0, 0, 0); stroke-opacity: 1; stroke-width: 0.5px;"/><path class="cbline" d="M932,504.25h30" style="fill: none; stroke: rgb(0, 0, 0); stroke-opacity: 1; stroke-width: 0.5px;"/><path class="cbline" d="M932,437.25h30" style="fill: none; stroke: rgb(0, 0, 0); stroke-opacity: 1; stroke-width: 0.5px;"/><path class="cbline" d="M932,370.25h30" style="fill: none; stroke: rgb(0, 0, 0); stroke-opacity: 1; stroke-width: 0.5px;"/><path class="cbline" d="M932,303.25h30" style="fill: none; stroke: rgb(0, 0, 0); stroke-opacity: 1; stroke-width: 0.5px;"/><path class="cbline" d="M932,235.25h30" style="fill: none; stroke: rgb(0, 0, 0); stroke-opacity: 1; stroke-width: 0.5px;"/><path class="cbline" d="M932,168.25h30" style="fill: none; stroke: rgb(0, 0, 0); stroke-opacity: 1; stroke-width: 0.5px;"/><path class="cbline" d="M932,101.25h30" style="fill: none; stroke: rgb(0, 0, 0); stroke-opacity: 1; stroke-width: 0.5px;"/><path class="cbline" d="M932,34.25h30" style="fill: none; stroke: rgb(0, 0, 0); stroke-opacity: 1; stroke-width: 0.5px;"/></g><g class="cbaxis crisp" transform=""><g class="ycbc9ce3etick"><text text-anchor="start" x="964.9" y="4.199999999999999" transform="translate(0,581.39)" style="font-family: 'Open Sans', verdana, arial, sans-serif; font-size: 12px; fill: rgb(42, 63, 95); fill-opacity: 1; white-space: pre; opacity: 1;">0.01</text></g><g class="ycbc9ce3etick"><text text-anchor="start" x="964.9" y="4.199999999999999" style="font-family: 'Open Sans', verdana, arial, sans-serif; font-size: 12px; fill: rgb(42, 63, 95); fill-opacity: 1; white-space: pre; opacity: 1;" transform="translate(0,514.1700000000001)">0.02</text></g><g class="ycbc9ce3etick"><text text-anchor="start" x="964.9" y="4.199999999999999" style="font-family: 'Open Sans', verdana, arial, sans-serif; font-size: 12px; fill: rgb(42, 63, 95); fill-opacity: 1; white-space: pre; opacity: 1;" transform="translate(0,446.94)">0.03</text></g><g class="ycbc9ce3etick"><text text-anchor="start" x="964.9" y="4.199999999999999" style="font-family: 'Open Sans', verdana, arial, sans-serif; font-size: 12px; fill: rgb(42, 63, 95); fill-opacity: 1; white-space: pre; opacity: 1;" transform="translate(0,379.72)">0.04</text></g><g class="ycbc9ce3etick"><text text-anchor="start" x="964.9" y="4.199999999999999" style="font-family: 'Open Sans', verdana, arial, sans-serif; font-size: 12px; fill: rgb(42, 63, 95); fill-opacity: 1; white-space: pre; opacity: 1;" transform="translate(0,312.5)">0.05</text></g><g class="ycbc9ce3etick"><text text-anchor="start" x="964.9" y="4.199999999999999" style="font-family: 'Open Sans', verdana, arial, sans-serif; font-size: 12px; fill: rgb(42, 63, 95); fill-opacity: 1; white-space: pre; opacity: 1;" transform="translate(0,245.28)">0.06</text></g><g class="ycbc9ce3etick"><text text-anchor="start" x="964.9" y="4.199999999999999" style="font-family: 'Open Sans', verdana, arial, sans-serif; font-size: 12px; fill: rgb(42, 63, 95); fill-opacity: 1; white-space: pre; opacity: 1;" transform="translate(0,178.06)">0.07</text></g><g class="ycbc9ce3etick"><text text-anchor="start" x="964.9" y="4.199999999999999" style="font-family: 'Open Sans', verdana, arial, sans-serif; font-size: 12px; fill: rgb(42, 63, 95); fill-opacity: 1; white-space: pre; opacity: 1;" transform="translate(0,110.83000000000001)">0.08</text></g><g class="ycbc9ce3etick"><text text-anchor="start" x="964.9" y="4.199999999999999" style="font-family: 'Open Sans', verdana, arial, sans-serif; font-size: 12px; fill: rgb(42, 63, 95); fill-opacity: 1; white-space: pre; opacity: 1;" transform="translate(0,43.61000000000001)">0.09</text></g></g><g class="cbtitleunshift" transform=""><g class="cbtitle"/></g><rect class="cboutline" x="932" y="10" width="30" height="605" style="stroke: rgb(68, 68, 68); stroke-opacity: 1; fill: none; stroke-width: 0;"/></g><g class="g-gtitle"/></g></svg>